<svg xmlns="http://www.w3.org/2000/svg" xmlns:xlink="http://www.w3.org/1999/xlink" width="338.127" height="339.941" viewBox="0 0 338.127 339.941"><defs><style>.a{fill:url(#a);}.b{fill:url(#b);}.c{clip-path:url(#d);}.d{opacity:0.8;}.ak,.d,.k{mix-blend-mode:soft-light;}.ah,.ak,.d,.k,.v{isolation:isolate;}.ak,.e{fill:#fff;}.f{clip-path:url(#f);}.g{fill:#d8dee8;}.h{fill:url(#g);}.i{fill:url(#h);}.j{fill:url(#i);}.l{fill:url(#j);}.m{fill:url(#k);}.n{fill:url(#l);}.o{fill:url(#m);}.p{fill:url(#n);}.q{fill:url(#o);}.r{fill:url(#p);}.s{fill:url(#q);}.t{fill:url(#r);}.u{fill:url(#s);}.v{opacity:0.3;fill:url(#t);}.ah,.v{mix-blend-mode:multiply;}.w{fill:url(#u);}.x{fill:url(#v);}.y{fill:url(#w);}.z{fill:url(#x);}.aa{fill:url(#y);}.ab{fill:url(#z);}.ac{fill:url(#aa);}.ad{fill:url(#ab);}.ae{fill:url(#ac);}.af{fill:url(#ad);}.ag{fill:url(#ae);}.ah{opacity:0.1;fill:url(#af);}.ai{fill:url(#ah);}.aj{fill:url(#ai);}.ak{opacity:0.4;}</style><linearGradient id="a" x1="0.294" y1="0.988" x2="0.959" y2="-0.074" gradientUnits="objectBoundingBox"><stop offset="0.004" stop-color="#e38ddd"/><stop offset="1" stop-color="#9571f6"/></linearGradient><linearGradient id="b" y1="0.5" x2="1" y2="0.5" gradientUnits="objectBoundingBox"><stop offset="0" stop-color="#ff9085"/><stop offset="1" stop-color="#fb6fbb"/></linearGradient><clipPath id="d"><path class="a" d="M2148.393,644.744c-4.059-3.359-10.217-5.188-15.422-5.557-36.9-2.614-42.283,74.512-36.628,91.749s1.991,22.9-27.069,31.914-15.119,26.381-11.577,36.535,10.556,18.731-10.629,28.821-13.823,16.341-13.823,16.341,39.068,39.962,36.91,27.168,1.751-32.113,36.779-33.581c15.087-.632,38.191-7.829,43.307-23.984,1.191-3.762,2.02-9.508,1.114-13.4-1.257-5.4-4.8-9.657-6.771-14.74-4.587-11.846,6.917-20.522,13.539-28.44a88.106,88.106,0,0,0,9.559-13.087c5.5-9.785,3.439-20.28-2.546-29.3-2.87-4.325-6.858-8.915-8.109-14.074-1.344-5.542-.173-13.114.147-18.816a119.636,119.636,0,0,0,.425-13.408C2157.132,660.545,2155.18,650.358,2148.393,644.744Z" transform="translate(-2032.008 -639.122)"/></clipPath><clipPath id="f"><path class="b" d="M1990.165,1495.238c-2.684-4.534-7.859-8.339-12.633-10.448-33.837-14.946-65,55.809-65.513,73.943s-5.874,22.22-36.271,20.872-23.154,19.709-23.256,30.463,3.595,21.2-19.754,23.524-18.537,10.7-18.537,10.7,23.241,50.824,25.54,38.054,12.515-29.626,45.972-19.155c14.411,4.51,38.587,5.555,48.868-7.915,2.394-3.137,5.118-8.263,5.583-12.234.644-5.508-1.251-10.712-1.384-16.162-.308-12.7,13.454-16.971,22.364-22.181a88.128,88.128,0,0,0,13.423-9.08c8.483-7.348,10.1-17.92,7.519-28.433-1.237-5.041-3.437-10.709-2.869-15.988.61-5.67,4.275-12.4,6.505-17.656a119.543,119.543,0,0,0,4.937-12.474C1993.041,1513.064,1994.651,1502.818,1990.165,1495.238Z" transform="translate(-1813.792 -1482.732)"/></clipPath><linearGradient id="g" x1="-0.084" y1="0.477" x2="-0.366" y2="0.496" gradientUnits="objectBoundingBox"><stop offset="0" stop-color="#444b8c"/><stop offset="0.996" stop-color="#26264f"/></linearGradient><linearGradient id="h" x1="0.197" y1="0.034" x2="-0.498" y2="1.514" xlink:href="#g"/><linearGradient id="i" x1="-22.271" y1="-1.493" x2="-51.489" y2="78.648" gradientUnits="objectBoundingBox"><stop offset="0" stop-color="#ffc444"/><stop offset="0.996" stop-color="#f36f56"/></linearGradient><linearGradient id="j" x1="10.206" y1="10.271" x2="9.137" y2="11.34" gradientUnits="objectBoundingBox"><stop offset="0.004" stop-color="#f36f56"/><stop offset="1" stop-color="#ffc444"/></linearGradient><linearGradient id="k" x1="0.165" y1="0.812" x2="0.693" y2="0.319" xlink:href="#j"/><linearGradient id="l" x1="0.865" y1="0.938" x2="0.508" y2="0.51" xlink:href="#j"/><linearGradient id="m" x1="0.722" y1="0.119" x2="0.437" y2="0.81" xlink:href="#j"/><linearGradient id="n" x1="-47.876" y1="0.03" x2="-44.561" y2="1.813" xlink:href="#i"/><linearGradient id="o" x1="-12.57" y1="-0.747" x2="-12.581" y2="-7.554" gradientUnits="objectBoundingBox"><stop offset="0" stop-color="#aa80f9"/><stop offset="0.996" stop-color="#6165d7"/></linearGradient><linearGradient id="p" x1="-145.481" y1="8.275" x2="-145.419" y2="3.978" xlink:href="#i"/><linearGradient id="q" x1="-9.06" y1="-1.686" x2="-9.071" y2="-8.493" xlink:href="#o"/><linearGradient id="r" x1="-133.551" y1="7.209" x2="-133.489" y2="2.913" xlink:href="#i"/><linearGradient id="s" x1="-6.282" y1="0.162" x2="-5.66" y2="0.831" gradientUnits="objectBoundingBox"><stop offset="0" stop-color="#311944"/><stop offset="1" stop-color="#893976"/></linearGradient><linearGradient id="t" x1="-26.868" y1="0.746" x2="-25.838" y2="0.746" xlink:href="#s"/><linearGradient id="u" x1="-19.662" y1="0.727" x2="-18.453" y2="0.727" xlink:href="#s"/><linearGradient id="v" x1="-3.596" y1="0.282" x2="-3.111" y2="3.745" xlink:href="#o"/><linearGradient id="w" x1="-8.053" y1="2.459" x2="-7.655" y2="4.281" xlink:href="#o"/><linearGradient id="x" x1="-8.249" y1="1.943" x2="-9.577" y2="0.482" xlink:href="#o"/><linearGradient id="y" x1="-6.207" y1="-2.638" x2="-7.363" y2="1.127" xlink:href="#i"/><linearGradient id="z" x1="-13.363" y1="2.885" x2="-12.639" y2="5.094" xlink:href="#o"/><linearGradient id="aa" x1="-32.364" y1="30.789" x2="-32.364" y2="29.393" xlink:href="#i"/><linearGradient id="ab" x1="-44.72" y1="3.637" x2="-45.438" y2="2.051" gradientUnits="objectBoundingBox"><stop offset="0" stop-color="#444b8c"/><stop offset="0.996" stop-color="#3e4177"/></linearGradient><linearGradient id="ac" x1="-84.021" y1="57.263" x2="-82.893" y2="54.886" xlink:href="#i"/><linearGradient id="ad" x1="0" y1="0.5" x2="1" y2="0.5" xlink:href="#s"/><linearGradient id="ae" x1="0.618" y1="2.099" x2="0.497" y2="0.43" xlink:href="#j"/><linearGradient id="af" x1="0" y1="0.5" x2="1" y2="0.5" xlink:href="#j"/><linearGradient id="ah" x1="0.583" y1="-0.668" x2="0.196" y2="4.766" xlink:href="#j"/><linearGradient id="ai" x1="0.435" y1="-1.462" x2="0.566" y2="2.496" xlink:href="#j"/></defs><g transform="translate(158.914 11.626)"><g transform="translate(27.604 0)"><path class="a" d="M2148.393,644.744c-4.059-3.359-10.217-5.188-15.422-5.557-36.9-2.614-42.283,74.512-36.628,91.749s1.991,22.9-27.069,31.914-15.119,26.381-11.577,36.535,10.556,18.731-10.629,28.821-13.823,16.341-13.823,16.341,39.068,39.962,36.91,27.168,1.751-32.113,36.779-33.581c15.087-.632,38.191-7.829,43.307-23.984,1.191-3.762,2.02-9.508,1.114-13.4-1.257-5.4-4.8-9.657-6.771-14.74-4.587-11.846,6.917-20.522,13.539-28.44a88.106,88.106,0,0,0,9.559-13.087c5.5-9.785,3.439-20.28-2.546-29.3-2.87-4.325-6.858-8.915-8.109-14.074-1.344-5.542-.173-13.114.147-18.816a119.636,119.636,0,0,0,.425-13.408C2157.132,660.545,2155.18,650.358,2148.393,644.744Z" transform="translate(-2032.008 -639.122)"/><g class="c"><g class="d" transform="translate(-2.564 -9.597)"><path class="e" d="M2012.468,800.7a.546.546,0,0,1-.437-1,263.241,263.241,0,0,0,34.959-22.986c16.906-13.129,38.931-33.831,47.848-57.9,7.448-20.1,14.24-53.327,18.635-91.163,3.941-33.927,4.563-59.02,2.888-63.678a.546.546,0,1,1,1.027-.369c1.959,5.449.716,33.637-2.832,64.173-4.4,37.919-11.219,71.238-18.7,91.416-9.009,24.313-31.194,45.173-48.217,58.392a264.308,264.308,0,0,1-35.107,23.079A.525.525,0,0,1,2012.468,800.7Z" transform="translate(-2011.738 -563.251)"/><g transform="translate(69.064 23.975)"><path class="e" d="M2590.317,799.789a.49.49,0,0,1-.673-.259c-.137-.373-13.891-37.38-31.63-45.736a.524.524,0,0,1-.255-.71.545.545,0,0,1,.729-.253c18.144,8.546,31.613,44.777,32.179,46.318a.492.492,0,0,1-.347.638Z" transform="translate(-2557.706 -752.778)"/></g><g transform="translate(94.237 87.829)"><path class="e" d="M2757.438,1283.64a.546.546,0,0,1-.531-.935,173.066,173.066,0,0,1,22.724-15.362c16.884-9.419,29.823-12.049,38.458-7.815a.546.546,0,0,1-.48.98c-19.867-9.74-59.609,22.711-60.008,23.04A.54.54,0,0,1,2757.438,1283.64Z" transform="translate(-2756.707 -1257.567)"/></g><g transform="translate(24.164 128.312)"><path class="e" d="M2229.471,1650.9a.547.547,0,0,1-.73-.505,208.107,208.107,0,0,0-3.607-32.767c-3.047-15.339-9.339-34.553-22.009-38.98a.546.546,0,0,1,.36-1.03c10.565,3.692,18.21,17.086,22.722,39.812a209.188,209.188,0,0,1,3.625,32.948A.546.546,0,0,1,2229.471,1650.9Z" transform="translate(-2202.759 -1577.589)"/></g><g transform="translate(72.69 145.966)"><path class="e" d="M2587.106,1747.157a.546.546,0,0,1-.509-.952c1.757-1.3,43.2-31.769,59.365-28.859a.546.546,0,0,1-.193,1.074c-15.705-2.827-58.1,28.347-58.523,28.662A.548.548,0,0,1,2587.106,1747.157Z" transform="translate(-2586.376 -1717.15)"/></g></g></g></g><g transform="translate(0 106.715)"><path class="b" d="M1990.165,1495.238c-2.684-4.534-7.859-8.339-12.633-10.448-33.837-14.946-65,55.809-65.513,73.943s-5.874,22.22-36.271,20.872-23.154,19.709-23.256,30.463,3.595,21.2-19.754,23.524-18.537,10.7-18.537,10.7,23.241,50.824,25.54,38.054,12.515-29.626,45.972-19.155c14.411,4.51,38.587,5.555,48.868-7.915,2.394-3.137,5.118-8.263,5.583-12.234.644-5.508-1.251-10.712-1.384-16.162-.308-12.7,13.454-16.971,22.364-22.181a88.128,88.128,0,0,0,13.423-9.08c8.483-7.348,10.1-17.92,7.519-28.433-1.237-5.041-3.437-10.709-2.869-15.988.61-5.67,4.275-12.4,6.505-17.656a119.543,119.543,0,0,0,4.937-12.474C1993.041,1513.064,1994.651,1502.818,1990.165,1495.238Z" transform="translate(-1813.792 -1482.732)"/><g class="f"><g class="d" transform="translate(-10.615 -6.522)"><path class="e" d="M1730.421,1619.323a.545.545,0,0,1-.073-1.086,263.269,263.269,0,0,0,40.674-9.8c20.351-6.634,48.082-18.662,64.616-38.291,13.81-16.394,31.445-45.363,48.383-79.48,15.189-30.593,24.265-53.994,24.265-58.944a.546.546,0,1,1,1.091,0c0,5.791-10.709,31.9-24.379,59.43-16.976,34.191-34.663,63.24-48.526,79.7-16.7,19.83-44.639,31.953-65.131,38.632a264.33,264.33,0,0,1-40.846,9.838A.522.522,0,0,1,1730.421,1619.323Z" transform="translate(-1729.876 -1431.176)"/><g transform="translate(136.87 10.548)"><path class="e" d="M2826.862,1569.782a.533.533,0,0,1-.546-.527c0-.4-.423-39.9-14.288-53.769a.544.544,0,1,1,.771-.766c14.182,14.182,14.6,52.885,14.608,54.527a.533.533,0,0,1-.542.535Z" transform="translate(-2811.868 -1514.56)"/></g><g transform="translate(130.484 94.473)"><path class="e" d="M2761.931,2187.315a.546.546,0,0,1-.184-1.059,173.084,173.084,0,0,1,26.582-6.767c19.075-3.151,32.141-1.247,38.834,5.659a.546.546,0,1,1-.783.76c-15.4-15.888-63.778,1.2-64.265,1.375A.536.536,0,0,1,2761.931,2187.315Z" transform="translate(-2761.385 -2178.014)"/></g><g transform="translate(59.31 93.528)"><path class="e" d="M2199.282,2248.416a.546.546,0,0,1-.516-.723,208.053,208.053,0,0,0,7.693-32.054c2.323-15.465,2.9-35.675-7.521-44.128a.546.546,0,1,1,.687-.848c8.692,7.049,11.354,22.24,7.911,45.153a209.278,209.278,0,0,1-7.738,32.231A.546.546,0,0,1,2199.282,2248.416Z" transform="translate(-2198.736 -2170.541)"/></g><g transform="translate(89.205 144.264)"><path class="e" d="M2435.613,2582.252a.546.546,0,0,1-.156-1.069c2.092-.627,51.4-15.276,65.628-7.069a.546.546,0,1,1-.545.945c-13.822-7.974-64.262,7.016-64.77,7.169A.542.542,0,0,1,2435.613,2582.252Z" transform="translate(-2435.068 -2571.623)"/></g></g></g></g></g><g transform="translate(108.95)"><g transform="translate(87.141 2.173)"><path class="g" d="M2133.459,565.6l-.39,2.79a21.924,21.924,0,0,0-3.805.5l-1.055-2.6a1.383,1.383,0,0,0-1.815-.753l-4.474,1.843a1.41,1.41,0,0,0-.778,1.823l1.06,2.636a22.565,22.565,0,0,0-3.062,2.338l-2.25-1.744a1.407,1.407,0,0,0-1.967.26l-3.006,3.846a1.4,1.4,0,0,0,.228,1.971l2.256,1.754a22.5,22.5,0,0,0-1.513,3.563l-2.863-.375a1.439,1.439,0,0,0-1.6,1.219l-.719,4.851a1.387,1.387,0,0,0,1.187,1.591l2.871.377a22.234,22.234,0,0,0,.432,3.851l-2.694,1.123a1.456,1.456,0,0,0-.8,1.866l1.795,4.561a1.389,1.389,0,0,0,1.839.772l2.7-1.129a22.129,22.129,0,0,0,2.309,3.109l-1.8,2.332a1.445,1.445,0,0,0,.233,2.017l3.851,3.021a1.413,1.413,0,0,0,2-.272l1.775-2.317a21.681,21.681,0,0,0,3.584,1.507l-.4,2.892a1.42,1.42,0,0,0,1.208,1.618l4.862.638a1.444,1.444,0,0,0,1.6-1.25l.392-2.87a21.881,21.881,0,0,0,3.885-.512l1.066,2.652a1.4,1.4,0,0,0,1.85.776l4.534-1.921a1.457,1.457,0,0,0,.772-1.885l-1.066-2.633a22.573,22.573,0,0,0,3.116-2.423l2.216,1.723a1.4,1.4,0,0,0,1.983-.27l2.969-3.936a1.443,1.443,0,0,0-.262-2.005l-2.2-1.7a22.488,22.488,0,0,0,1.49-3.662l2.746.36a1.41,1.41,0,0,0,1.576-1.228l.623-4.863a1.415,1.415,0,0,0-1.212-1.587l-2.737-.359a22.3,22.3,0,0,0-.5-3.889l2.539-1.063a1.412,1.412,0,0,0,.755-1.842l-1.855-4.483a1.4,1.4,0,0,0-1.826-.758l-2.553,1.065a22.131,22.131,0,0,0-2.356-3.073l1.687-2.2a1.4,1.4,0,0,0-.256-1.959l-3.814-2.93a1.4,1.4,0,0,0-1.954.258l-1.7,2.205a21.678,21.678,0,0,0-3.555-1.455l.379-2.769a1.383,1.383,0,0,0-1.191-1.56l-4.765-.625A1.406,1.406,0,0,0,2133.459,565.6Zm-16.8,22.6a17.646,17.646,0,0,1,19.654-15.059,17.354,17.354,0,0,1,14.866,19.586,17.639,17.639,0,0,1-19.68,15.249A17.348,17.348,0,0,1,2116.659,588.205Z" transform="translate(-2107.692 -564.391)"/></g><g transform="translate(0 0)"><path class="g" d="M1458.656,549.082l-.6,4.315a33.869,33.869,0,0,0-5.883.779l-1.631-4.025a2.139,2.139,0,0,0-2.806-1.164l-6.918,2.85a2.181,2.181,0,0,0-1.2,2.819l1.639,4.076a34.92,34.92,0,0,0-4.734,3.615l-3.478-2.7a2.175,2.175,0,0,0-3.041.4L1425.351,566a2.165,2.165,0,0,0,.352,3.047l3.488,2.712a34.764,34.764,0,0,0-2.34,5.509l-4.426-.581a2.225,2.225,0,0,0-2.473,1.884l-1.112,7.5a2.145,2.145,0,0,0,1.835,2.46l4.439.582a34.4,34.4,0,0,0,.668,5.954l-4.166,1.737a2.251,2.251,0,0,0-1.232,2.886l2.775,7.052a2.148,2.148,0,0,0,2.843,1.193l4.168-1.745a34.234,34.234,0,0,0,3.57,4.807l-2.777,3.606a2.235,2.235,0,0,0,.36,3.119l5.954,4.671a2.184,2.184,0,0,0,3.085-.42l2.744-3.582a33.531,33.531,0,0,0,5.542,2.329l-.625,4.471a2.2,2.2,0,0,0,1.867,2.5l7.517.986a2.232,2.232,0,0,0,2.48-1.932l.607-4.437a33.846,33.846,0,0,0,6.007-.792l1.649,4.1a2.166,2.166,0,0,0,2.861,1.2l7.01-2.97a2.253,2.253,0,0,0,1.194-2.915l-1.649-4.07a34.946,34.946,0,0,0,4.818-3.746l3.426,2.664a2.166,2.166,0,0,0,3.066-.418l4.591-6.086a2.231,2.231,0,0,0-.4-3.1l-3.4-2.632a34.753,34.753,0,0,0,2.3-5.661l4.245.557a2.181,2.181,0,0,0,2.438-1.9l.963-7.519a2.188,2.188,0,0,0-1.873-2.454l-4.233-.555a34.4,34.4,0,0,0-.78-6.014l3.926-1.644a2.183,2.183,0,0,0,1.167-2.848l-2.868-6.932a2.157,2.157,0,0,0-2.824-1.171l-3.948,1.646a34.208,34.208,0,0,0-3.643-4.752l2.608-3.405a2.162,2.162,0,0,0-.4-3.029l-5.9-4.531a2.157,2.157,0,0,0-3.022.4l-2.625,3.41a33.506,33.506,0,0,0-5.5-2.25l.586-4.282a2.138,2.138,0,0,0-1.842-2.413l-7.368-.966A2.174,2.174,0,0,0,1458.656,549.082Zm-25.976,34.95a27.284,27.284,0,0,1,30.388-23.283,26.832,26.832,0,0,1,22.985,30.284,27.272,27.272,0,0,1-30.428,23.577A26.823,26.823,0,0,1,1432.68,584.032Z" transform="translate(-1418.815 -547.211)"/></g></g><g transform="translate(103.241 33.396)"><path class="h" d="M1455.125,821.62,1422.9,1089.484a7.058,7.058,0,0,0,6.163,8l134.229,14.736c8.223.511,12.725-3.69,13.232-7.96l33.835-284.784c.5-4.247-3.53-8.093-11.787-8.093l-135.451,2.853A8.539,8.539,0,0,0,1455.125,821.62Z" transform="translate(-1416.625 -811.363)"/><path class="i" d="M1406.143,821.013l-32.4,269.2a7.091,7.091,0,0,0,6.183,8.043l139.158,13.855a8.135,8.135,0,0,0,8.871-7.015l34.025-286.256a6.752,6.752,0,0,0-7.108-7.626l-140.7,2.374A8.578,8.578,0,0,0,1406.143,821.013Z" transform="translate(-1373.684 -811.218)"/><path class="g" d="M1443.406,948.711l-30.034,249.605a6.612,6.612,0,0,0,5.79,7.5l130.874,12.722a7.587,7.587,0,0,0,8.248-6.548l31.444-264.434a6.326,6.326,0,0,0-6.6-7.148l-132.217,1.408A7.959,7.959,0,0,0,1443.406,948.711Z" transform="translate(-1408.307 -924.066)"/><path class="j" d="M2205.828,869.012a2.227,2.227,0,0,0,2.3,2.562,3.068,3.068,0,0,0,2.926-2.633,2.227,2.227,0,0,0-2.3-2.562A3.069,3.069,0,0,0,2205.828,869.012Z" transform="translate(-2100.547 -859.401)"/><g class="k" transform="translate(35.961 0)"><path class="e" d="M1679.734,1003.413c26.793-49.536,66.817-64.363,78.867-115.415,6.514-27.6,2.076-54.009-5.4-75.936l49.99-.844a6.752,6.752,0,0,1,7.107,7.626L1776.276,1105.1a8.135,8.135,0,0,1-8.871,7.015l-109.392-10.891C1657.2,1056.838,1667.791,1025.494,1679.734,1003.413Z" transform="translate(-1657.969 -811.218)"/></g></g><g transform="translate(3.583 21.848)"><g transform="translate(0 2.099)"><path class="l" d="M585.856,784.176c0-26.321,22.96-47.656,50.514-47.653,26.739,0,47.842,20.215,47.842,45.143s-21.1,46.217-47.842,47.585C608.816,830.661,585.856,810.5,585.856,784.176Z" transform="translate(-585.856 -736.524)"/></g><g transform="translate(2.97 0)"><path class="m" d="M609.337,767.582c0-26.321,22.3-47.656,49.053-47.653,25.965,0,46.458,20.215,46.458,45.143s-20.492,46.217-46.458,47.585C631.633,814.067,609.337,793.9,609.337,767.582Z" transform="translate(-609.337 -719.93)"/></g><g transform="translate(10.604 7.417)"><path class="n" d="M669.681,818.6c0-22.114,18.732-40.038,41.212-40.036,21.815,0,39.032,16.983,39.032,37.927s-17.217,38.829-39.032,39.979C688.413,857.65,669.681,840.709,669.681,818.6Z" transform="translate(-669.681 -778.56)"/></g><path class="o" d="M728.477,781.957c21.815,0,39.032,16.983,39.032,37.927a38.307,38.307,0,0,1-2.761,14.234,38.514,38.514,0,0,0,4.308-17.631c0-20.944-17.217-37.925-39.032-37.928a41.436,41.436,0,0,0-38.441,25.688A41.556,41.556,0,0,1,728.477,781.957Z" transform="translate(-678.21 -771.142)"/><g transform="translate(33.158 21.123)"><g transform="translate(0 12.366)"><path class="e" d="M872.019,1007.3a7.8,7.8,0,0,1-1.88,4.487,5.134,5.134,0,0,1-4.01,1.508,6.948,6.948,0,0,1-3.387-.746,6.286,6.286,0,0,1-2.222-2.015,9.4,9.4,0,0,1-1.325-3.034,15.372,15.372,0,0,1-.441-3.663,16.7,16.7,0,0,1,.441-3.82,9.4,9.4,0,0,1,1.325-3.034,6.286,6.286,0,0,1,2.222-2.015,6.949,6.949,0,0,1,3.387-.746,5.134,5.134,0,0,1,4.01,1.509,7.8,7.8,0,0,1,1.88,4.487l.187,1.5h10.5l-.167-1.863a18.791,18.791,0,0,0-1.6-6.233,15.344,15.344,0,0,0-3.481-4.845,14.9,14.9,0,0,0-5.074-3.069,18.263,18.263,0,0,0-6.251-1.04,18.915,18.915,0,0,0-7.59,1.477,16.563,16.563,0,0,0-5.764,4.1,18.046,18.046,0,0,0-3.571,6.074,21.994,21.994,0,0,0-1.223,7.387c0,.018,0,.036,0,.054s0,.036,0,.054a22,22,0,0,0,1.223,7.387,18.044,18.044,0,0,0,3.571,6.074,16.563,16.563,0,0,0,5.764,4.1,18.915,18.915,0,0,0,7.59,1.477,18.26,18.26,0,0,0,6.251-1.039,14.9,14.9,0,0,0,5.074-3.069,15.341,15.341,0,0,0,3.481-4.845,18.788,18.788,0,0,0,1.6-6.232l.167-1.863h-10.5Z" transform="translate(-847.981 -984.669)"/></g><g transform="translate(4.122)"><path class="e" d="M880.566,886.914v8.244h26.48v-8.244Z" transform="translate(-880.566 -886.914)"/></g></g></g><g transform="translate(0 139.021)"><path class="p" d="M1351.858,1847.386s-.974-3.651-.284-4.584,4.908-4.665,4.5-3.448a7.838,7.838,0,0,1-1.014,2.028s2.272,1.055.811,2.637-1.948,1.947-2.029,3.367S1352.831,1849.293,1351.858,1847.386Z" transform="translate(-1250.914 -1814.711)"/><path class="q" d="M1032.018,3150.29a32.557,32.557,0,0,0-.45,4.281c.066,1.124,12.536,1.7,12.661.857s-2.061-2.181-3.6-2.653-6.045-1.734-6.045-1.734Z" transform="translate(-971.599 -2960.027)"/><path class="r" d="M1033.122,3124.515l-.4,3.926a2.835,2.835,0,0,1-2.725.218l-.639-4.273Z" transform="translate(-969.676 -2937.4)"/><path class="s" d="M856.134,3190.754a32.544,32.544,0,0,0-.45,4.281c.066,1.124,12.536,1.7,12.662.856s-2.061-2.181-3.6-2.653-6.045-1.733-6.045-1.733Z" transform="translate(-817.964 -2995.373)"/><path class="t" d="M857.24,3164.978l-.4,3.926a2.834,2.834,0,0,1-2.725.218l-.639-4.273Z" transform="translate(-816.043 -2972.745)"/><path class="u" d="M927.733,2303.606l4.324,8.767c1.159,16.677,1.735,34.811,1.365,54.2-.275,14.428-1.046,28.1-2.154,40.926l-5.863-.269a58.483,58.483,0,0,1-6.469-24.6c-.32-10.941,3-12.394,2.786-22.87-.273-13.578-5.966-17.2-9-33.533a87.455,87.455,0,0,1-1.013-24.3Z" transform="translate(-866.55 -2218.987)"/><path class="v" d="M911.71,2301.934l8.653.9c5.192,9.035,6.642,18.44,5.731,22.6-1.289,5.885-4.7,7.771-4.511,13.68.185,5.847,3.63,7.363,5.815,14.254,1.512,4.771,1.113,9.158.253,17.738-1.733,17.281-5.906,22.566-2.411,28.232a12.757,12.757,0,0,0,6.289,4.991c-.086,1.059-.17,2.123-.261,3.171l-5.863-.269a58.488,58.488,0,0,1-6.469-24.6c-.32-10.941,3-12.394,2.786-22.87-.273-13.578-5.966-17.2-9-33.533A87.455,87.455,0,0,1,911.71,2301.934Z" transform="translate(-866.55 -2218.987)"/><path class="w" d="M799.289,2328.2c-2.706,14.754-5.1,30.545-6.961,47.292-2.251,20.22-3.453,39.283-3.925,56.982l-6.435.182c-8.453-16.722-8.969-28.059-7.75-35.44a106.724,106.724,0,0,0,2.036-16.757,117.811,117.811,0,0,0-.631-15.548c-1.015-11.654-2.247-14.2-2.424-23.113-.166-8.366-.2-12.6,2.188-15.07C781.678,2320.222,798.047,2327.625,799.289,2328.2Z" transform="translate(-745.86 -2238.322)"/><path class="x" d="M1054.7,1832.33l4.279-.3c3.366,13.6.952,26.791-6.644,31.643-11.867,7.58-33.922-6.7-38.7-22.25-2.1-6.825-1.62-16.675,2.572-18.589,1.164-.531,2.97-.614,6.882,1.583,11.685,6.561,11.992,18.959,17.932,20.009C1043.665,1844.893,1047.93,1843.209,1054.7,1832.33Z" transform="translate(-954.882 -1800.217)"/><path class="y" d="M726.859,1886.669c2.055-3.41-.526-6.7-1.114-13.16-.666-7.323,2.155-8.542,4.945-20.677,1.855-8.071,3.636-15.819,1.51-24.888-1.019-4.346-2.746-11.719-8.848-15.28-3.149-1.838-7.448-1.654-15.917-1.211-10.473.548-15.71.821-19.616,2.878-.572.3-12.453,6.764-13.271,17.3-.833,10.721,10.844,12.163,12.4,26.46.7,6.418-.547,16.29-1.355,22.693-.776,6.148-1.31,7.722-.1,9.583,2.924,4.486,11.876,3.208,29.781.651C722.3,1890.013,725.326,1889.214,726.859,1886.669Z" transform="translate(-659.71 -1790.291)"/><path class="z" d="M699.617,1944.4c-.757,2.787-3.48,4.868-5.375,11.646-.409,1.464-3.324,11.885.457,14.45,2.184,1.481,4.144-1.325,9.444-1.692,9.184-.635,13.559,7.083,19.559,4.976a8.213,8.213,0,0,0,3.787-2.937,6.061,6.061,0,0,1-.629,4.437c-1.534,2.545-4.556,3.344-11.58,4.347-17.9,2.556-26.857,3.835-29.781-.651-1.213-1.861-.679-3.436.1-9.583.808-6.4,2.054-16.275,1.355-22.693-1.557-14.3-13.234-15.739-12.4-26.46a16.632,16.632,0,0,1,2.687-7.64C692.048,1918.594,702,1935.643,699.617,1944.4Z" transform="translate(-659.71 -1878.902)"/><path class="aa" d="M725.115,2326.959l2.964,1.892a6.939,6.939,0,0,1,3.688-2.277c2.167-.476,4.655.207,4.713.9.046.554-1.468,1.113-1.7,1.2-1.891.7-3.294.118-4.058.878a5.78,5.78,0,0,1-1.382,1.232,4.21,4.21,0,0,1-.529.273c-1.262.49-3.427-1.707-3.613-1.9Z" transform="translate(-703.916 -2240.371)"/><path class="ab" d="M587.489,1853.092c2.144-5.135,3.629-13,.243-24.67-22.311,8.792-33.69,29.633-29.247,46.154,3.662,13.62,16.988,20.254,19.96,21.65l2.075-4.723c-3.445-3.836-7.326-9.508-6.777-15.98C574.5,1866.55,583.149,1863.487,587.489,1853.092Z" transform="translate(-557.535 -1805.373)"/><path class="ac" d="M863.879,1730a23.882,23.882,0,0,1-1.388,6.826c-1.095,2.642-6.854,4.3-8.021,4.892s2.187,2.313,5.556,2.652,12.988-.426,14.722-1.7-1.394-1.181-3.8-2.064-3.794-5.585-3.37-7.719S863.879,1730,863.879,1730Z" transform="translate(-816.702 -1719.398)"/><path class="ad" d="M907.65,1655.395c1.748-1.717,1.992-1.918,2.182-2.511.764-2.382-1.084-5.645-3.508-6.448-.126-.042-1.751-.562-2.372.143-.527.6.248,1.426-.12,2.58-.345,1.081-1.282,1.161-3.018,2.578-1.43,1.167-2.319,1.892-2.524,2.913-.423,2.1,2.124,5.153,4.379,5.07C903.48,1659.69,903.7,1659.276,907.65,1655.395Z" transform="translate(-855.145 -1646.211)"/><g transform="translate(45.74 7.663)"><path class="ae" d="M921.129,1712.963a4.965,4.965,0,0,0,4.688,1.408c2.534-.623,1.887-6.439.033-7.368a3.289,3.289,0,0,0-2.588.123c-.5.241-.638.491-1.462.868-.76.348-1,.3-1.2.545-.256.306-.366.966.435,2.557a1.416,1.416,0,0,0-1.579-.224.887.887,0,0,0-.282.393C918.927,1711.987,919.676,1712.719,921.129,1712.963Z" transform="translate(-919.124 -1706.793)"/></g></g><g transform="translate(95.847 73.771)"><path class="af" d="M1479.565,1133.022l.654,3.53h0l-13.464.032-116.833.277a6.5,6.5,0,0,0-6.182,5.549l-27.89,186.4c-.415,3.085,4.387,7.795,7.375,8.025l51.833,3.983v-.063l77.533,5.948h0l.188.078a6.364,6.364,0,0,0,6.777-5.405s0,.014,0,.013l26.119-199.013C1486.1,1139.146,1482.894,1133.013,1479.565,1133.022Z" transform="translate(-1315.75 -1132.689)"/><g transform="translate(0 0)"><path class="ag" d="M1456.4,1335.2a6.39,6.39,0,0,1-6.774,5.442l-129.691-9.958a5.16,5.16,0,0,1-4.65-6l25.354-188.381a6.5,6.5,0,0,1,6.179-5.55l130.423-.359a5.08,5.08,0,0,1,5.265,5.829Z" transform="translate(-1315.234 -1130.391)"/><path class="e" d="M1616.9,1768.75a3.278,3.278,0,0,1-3.368,2.758l-114.143-4.166a2.426,2.426,0,0,1-2.359-2.837l2.244-16.634a2.989,2.989,0,0,1,3.09-2.541l114.243,3.173a2.48,2.48,0,0,1,2.605,2.824Z" transform="translate(-1474.014 -1667.541)"/><path class="e" d="M1582.644,2021.3a3.394,3.394,0,0,1-3.368,2.916l-114.057-5.635a2.62,2.62,0,0,1-2.346-3.059l2.262-16.955a3.213,3.213,0,0,1,3.1-2.8l114.126,4.6a2.77,2.77,0,0,1,2.6,3.172Z" transform="translate(-1444.174 -1886.299)"/><path class="ah" d="M1619.216,1751.266a3.118,3.118,0,0,0-.871-.144l-114.246-3.171a2.985,2.985,0,0,0-3.088,2.539l-2.247,16.634c0,.043-.009.083-.013.126a2.423,2.423,0,0,1-1.729-2.74l2.247-16.634a2.985,2.985,0,0,1,3.088-2.539l114.245,3.171A2.484,2.484,0,0,1,1619.216,1751.266Z" transform="translate(-1474.004 -1667.547)"/><path class="ah" d="M1584.978,2003.156a2.683,2.683,0,0,0-.884-.187l-114.124-4.6a3.212,3.212,0,0,0-3.1,2.805l-2.265,16.956a2.675,2.675,0,0,0-.022.323,2.678,2.678,0,0,1-1.72-2.936l2.265-16.956a3.212,3.212,0,0,1,3.1-2.805l114.124,4.6A2.76,2.76,0,0,1,1584.978,2003.156Z" transform="translate(-1444.165 -1886.284)"/><path class="ai" d="M1682.646,2355.873a4.4,4.4,0,0,0-4.031-5.05l-59.043-3.391a5.061,5.061,0,0,0-5.036,4.4L1612.1,2370.2a4.353,4.353,0,0,0,3.807,5.036l59.013,4.037a5.234,5.234,0,0,0,5.261-4.543Z" transform="translate(-1574.509 -2193.473)"/><g transform="translate(68.368 16.505)"><path class="aj" d="M1899.931,1283.028a25.555,25.555,0,0,1-25.119,21.706,19.3,19.3,0,0,1-15-7.17,19.682,19.682,0,0,1-3.907-15.011c1.6-12.008,12.635-21.716,24.743-21.687C1892.866,1260.894,1901.549,1270.815,1899.931,1283.028Z" transform="translate(-1855.705 -1260.865)"/><g transform="translate(4.104 5.924)"><path class="e" d="M1980.093,1317.264a11.087,11.087,0,0,1-10.824,9.411,8.223,8.223,0,0,1-8.231-9.569,11.1,11.1,0,0,1,10.754-9.407A8.222,8.222,0,0,1,1980.093,1317.264Z" transform="translate(-1951.744 -1307.699)"/><path class="e" d="M1920.186,1489.7a24.838,24.838,0,0,1-17.038,6.639,19.3,19.3,0,0,1-15-7.17,21.134,21.134,0,0,1,17.147-8.949A16.184,16.184,0,0,1,1920.186,1489.7Z" transform="translate(-1888.145 -1458.392)"/></g></g><path class="ak" d="M1787.8,1136.223,1761.7,1335.2a6.575,6.575,0,0,1-6.966,5.427l-77.894-5.981a41.5,41.5,0,0,1-8.922-13.791,42.585,42.585,0,0,1-2.369-8.6c-1.446-8.4-.886-17.952,1.223-27.327a90.245,90.245,0,0,1,7.419-20.77,68.194,68.194,0,0,1,9.083-13.788c2.462-2.842,5.124-5.6,7.932-8.313,3.386-3.268,6.985-6.459,10.7-9.62,8.651-7.371,17.914-14.577,26.492-22.187,19.79-17.556,35.844-37.171,31.982-65.161-.124-.881-1.33-7.633-2.87-14.631l24.839-.068A5.221,5.221,0,0,1,1787.8,1136.223Z" transform="translate(-1620.531 -1130.394)"/></g></g></svg>