<svg xmlns="http://www.w3.org/2000/svg" xmlns:xlink="http://www.w3.org/1999/xlink" width="401.685" height="362.583" viewBox="0 0 401.685 362.583"><defs><style>.a{fill:url(#a);}.b{fill:url(#b);}.c{clip-path:url(#d);}.d{opacity:0.8;}.d,.k,.q{mix-blend-mode:soft-light;}.d,.k,.n,.q{isolation:isolate;}.e,.q{fill:#fff;}.f{clip-path:url(#f);}.g{fill:#d8dee8;}.h{fill:url(#g);}.i{fill:url(#h);}.j{fill:url(#i);}.l{fill:url(#j);}.m{fill:url(#k);}.n{opacity:0.1;mix-blend-mode:multiply;fill:url(#l);}.o{fill:url(#n);}.p{fill:url(#o);}.q{opacity:0.4;}.r{fill:url(#p);}.s{fill:url(#q);}.t{fill:url(#r);}.u{fill:url(#s);}.v{fill:#ffb27d;}.w{fill:#ed975d;}.x{fill:#a9453d;}.y{fill:#2c3a64;}.z{fill:#2b478b;}.aa{fill:#233862;}.ab{fill:#1e3d70;}.ac{fill:#2a4e96;}</style><linearGradient id="a" x1="0.294" y1="0.988" x2="0.959" y2="-0.074" gradientUnits="objectBoundingBox"><stop offset="0.004" stop-color="#e38ddd"/><stop offset="1" stop-color="#9571f6"/></linearGradient><linearGradient id="b" y1="0.5" x2="1" y2="0.5" gradientUnits="objectBoundingBox"><stop offset="0" stop-color="#ff9085"/><stop offset="1" stop-color="#fb6fbb"/></linearGradient><clipPath id="d"><path class="a" d="M3987.592,4102c-4.046-3.348-10.185-5.172-15.374-5.54-36.782-2.606-42.148,74.276-36.511,91.458s1.984,22.824-26.983,31.813-15.071,26.3-11.54,36.419,10.522,18.672-10.6,28.729-13.779,16.288-13.779,16.288,38.944,39.836,36.793,27.082,1.746-32.011,36.662-33.474c15.04-.63,38.07-7.8,43.169-23.908,1.188-3.75,2.014-9.478,1.11-13.359-1.253-5.383-4.787-9.626-6.749-14.693-4.573-11.809,6.9-20.457,13.5-28.35a87.831,87.831,0,0,0,9.528-13.045c5.478-9.754,3.428-20.215-2.538-29.207-2.86-4.312-6.836-8.886-8.084-14.029-1.34-5.524-.172-13.073.147-18.756a119.4,119.4,0,0,0,.423-13.366C3996.3,4117.752,3994.357,4107.6,3987.592,4102Z" transform="translate(-3871.577 -4096.396)"/></clipPath><clipPath id="f"><path class="b" d="M3935.119,4542.894c-2.675-4.52-7.834-8.313-12.592-10.415-33.73-14.9-64.8,55.632-65.305,73.708s-5.855,22.149-36.156,20.806-23.081,19.646-23.183,30.366,3.583,21.131-19.691,23.45-18.478,10.666-18.478,10.666,23.167,50.663,25.458,37.934,12.475-29.532,45.827-19.094c14.365,4.5,38.465,5.538,48.713-7.89,2.386-3.127,5.1-8.237,5.565-12.195.643-5.49-1.247-10.678-1.379-16.111-.307-12.659,13.411-16.917,22.292-22.111a87.82,87.82,0,0,0,13.38-9.051c8.456-7.325,10.066-17.863,7.495-28.343-1.233-5.025-3.426-10.675-2.859-15.937.608-5.652,4.261-12.359,6.484-17.6a119.269,119.269,0,0,0,4.921-12.434C3937.987,4560.664,3939.592,4550.449,3935.119,4542.894Z" transform="translate(-3759.306 -4530.428)"/></clipPath><linearGradient id="g" x1="-5.281" y1="0.477" x2="-5.563" y2="0.496" gradientUnits="objectBoundingBox"><stop offset="0" stop-color="#444b8c"/><stop offset="0.996" stop-color="#26264f"/></linearGradient><linearGradient id="h" x1="-4.979" y1="0.034" x2="-5.673" y2="1.514" xlink:href="#g"/><linearGradient id="i" x1="-207.537" y1="-1.493" x2="-236.754" y2="78.647" gradientUnits="objectBoundingBox"><stop offset="0" stop-color="#ffc444"/><stop offset="0.996" stop-color="#f36f56"/></linearGradient><linearGradient id="j" y1="0.5" x2="1" y2="0.5" gradientUnits="objectBoundingBox"><stop offset="0" stop-color="#311944"/><stop offset="1" stop-color="#893976"/></linearGradient><linearGradient id="k" x1="0.618" y1="2.099" x2="0.497" y2="0.43" gradientUnits="objectBoundingBox"><stop offset="0.004" stop-color="#f36f56"/><stop offset="1" stop-color="#ffc444"/></linearGradient><linearGradient id="l" x1="0" y1="0.5" x2="1" y2="0.5" xlink:href="#k"/><linearGradient id="n" x1="0.583" y1="-0.668" x2="0.196" y2="4.766" xlink:href="#k"/><linearGradient id="o" x1="0.435" y1="-1.462" x2="0.566" y2="2.496" xlink:href="#k"/><linearGradient id="p" x1="-5.441" y1="14.868" x2="-6.51" y2="15.936" xlink:href="#k"/><linearGradient id="q" x1="0.165" y1="0.812" x2="0.693" y2="0.319" xlink:href="#k"/><linearGradient id="r" x1="0.865" y1="0.938" x2="0.508" y2="0.51" xlink:href="#k"/><linearGradient id="s" x1="0.722" y1="0.119" x2="0.437" y2="0.81" xlink:href="#k"/></defs><g transform="translate(148.519)"><g transform="translate(74.522 40.902)"><g transform="translate(27.516)"><path class="a" d="M3987.592,4102c-4.046-3.348-10.185-5.172-15.374-5.54-36.782-2.606-42.148,74.276-36.511,91.458s1.984,22.824-26.983,31.813-15.071,26.3-11.54,36.419,10.522,18.672-10.6,28.729-13.779,16.288-13.779,16.288,38.944,39.836,36.793,27.082,1.746-32.011,36.662-33.474c15.04-.63,38.07-7.8,43.169-23.908,1.188-3.75,2.014-9.478,1.11-13.359-1.253-5.383-4.787-9.626-6.749-14.693-4.573-11.809,6.9-20.457,13.5-28.35a87.831,87.831,0,0,0,9.528-13.045c5.478-9.754,3.428-20.215-2.538-29.207-2.86-4.312-6.836-8.886-8.084-14.029-1.34-5.524-.172-13.073.147-18.756a119.4,119.4,0,0,0,.423-13.366C3996.3,4117.752,3994.357,4107.6,3987.592,4102Z" transform="translate(-3871.577 -4096.396)"/><g class="c"><g class="d" transform="translate(-2.556 -9.567)"><path class="e" d="M3861.875,4294.06a.544.544,0,0,1-.435-.994,262.457,262.457,0,0,0,34.848-22.913c16.852-13.087,38.807-33.724,47.7-57.713,7.424-20.036,14.2-53.158,18.576-90.873,3.929-33.82,4.549-58.833,2.88-63.476a.544.544,0,1,1,1.023-.368c1.953,5.432.713,33.531-2.823,63.969-4.391,37.8-11.184,71.013-18.636,91.126-8.98,24.235-31.095,45.029-48.064,58.206a263.5,263.5,0,0,1-35,23.006A.614.614,0,0,1,3861.875,4294.06Z" transform="translate(-3861.147 -4057.362)"/><g transform="translate(68.845 23.899)"><path class="e" d="M4174.552,4201.734a.489.489,0,0,1-.671-.258c-.137-.373-13.848-37.262-31.529-45.591a.523.523,0,0,1-.255-.707.544.544,0,0,1,.727-.252c18.086,8.519,31.513,44.635,32.077,46.17a.49.49,0,0,1-.346.636Z" transform="translate(-4142.043 -4154.872)"/></g><g transform="translate(93.938 87.55)"><path class="e" d="M4245.157,4440.572a.544.544,0,0,1-.53-.932,172.547,172.547,0,0,1,22.652-15.313c16.831-9.389,29.729-12.01,38.337-7.79a.544.544,0,0,1-.479.976c-19.8-9.708-59.42,22.639-59.818,22.967A.542.542,0,0,1,4245.157,4440.572Z" transform="translate(-4244.429 -4414.582)"/></g><g transform="translate(24.087 127.904)"><path class="e" d="M3986.054,4652.312a.544.544,0,0,1-.728-.5,207.527,207.527,0,0,0-3.6-32.663c-3.037-15.29-9.31-34.443-21.939-38.856a.544.544,0,1,1,.358-1.026c10.532,3.68,18.152,17.032,22.65,39.686a208.558,208.558,0,0,1,3.613,32.844A.545.545,0,0,1,3986.054,4652.312Z" transform="translate(-3959.427 -4579.232)"/></g><g transform="translate(72.46 145.502)"><path class="e" d="M4157.523,4680.946a.544.544,0,0,1-.507-.95c1.75-1.294,43.065-31.667,59.177-28.767a.544.544,0,0,1-.192,1.07c-15.656-2.817-57.913,28.257-58.338,28.571A.551.551,0,0,1,4157.523,4680.946Z" transform="translate(-4156.795 -4651.034)"/></g></g></g></g><g transform="translate(0 106.376)"><path class="b" d="M3935.119,4542.894c-2.675-4.52-7.834-8.313-12.592-10.415-33.73-14.9-64.8,55.632-65.305,73.708s-5.855,22.149-36.156,20.806-23.081,19.646-23.183,30.366,3.583,21.131-19.691,23.45-18.478,10.666-18.478,10.666,23.167,50.663,25.458,37.934,12.475-29.532,45.827-19.094c14.365,4.5,38.465,5.538,48.713-7.89,2.386-3.127,5.1-8.237,5.565-12.195.643-5.49-1.247-10.678-1.379-16.111-.307-12.659,13.411-16.917,22.292-22.111a87.82,87.82,0,0,0,13.38-9.051c8.456-7.325,10.066-17.863,7.495-28.343-1.233-5.025-3.426-10.675-2.859-15.937.608-5.652,4.261-12.359,6.484-17.6a119.269,119.269,0,0,0,4.921-12.434C3937.987,4560.664,3939.592,4550.449,3935.119,4542.894Z" transform="translate(-3759.306 -4530.428)"/><g class="f"><g class="d" transform="translate(-10.582 -6.501)"><path class="e" d="M3716.675,4691.453a.544.544,0,0,1-.073-1.083,262.416,262.416,0,0,0,40.545-9.769c20.286-6.613,47.929-18.6,64.411-38.17,13.766-16.342,31.345-45.219,48.229-79.228,15.141-30.5,24.188-53.823,24.188-58.757a.544.544,0,1,1,1.088,0c0,5.772-10.674,31.794-24.3,59.241-16.922,34.083-34.552,63.039-48.372,79.445-16.651,19.767-44.5,31.852-64.925,38.509a263.389,263.389,0,0,1-40.716,9.807A.555.555,0,0,1,3716.675,4691.453Z" transform="translate(-3716.132 -4503.902)"/><g transform="translate(136.435 10.514)"><path class="e" d="M4287.754,4601.85a.531.531,0,0,1-.543-.525c0-.4-.423-39.778-14.244-53.6a.542.542,0,1,1,.77-.763c14.137,14.136,14.551,52.717,14.561,54.353a.531.531,0,0,1-.54.534Z" transform="translate(-4272.808 -4546.803)"/></g><g transform="translate(130.069 94.174)"><path class="e" d="M4247.38,4897.417a.544.544,0,0,1-.184-1.056,172.659,172.659,0,0,1,26.5-6.746c19.016-3.14,32.039-1.242,38.712,5.642a.544.544,0,0,1-.781.757c-15.351-15.837-63.575,1.2-64.061,1.371A.538.538,0,0,1,4247.38,4897.417Z" transform="translate(-4246.836 -4888.146)"/></g><g transform="translate(59.122 93.231)"><path class="e" d="M3957.9,4961.928a.545.545,0,0,1-.515-.721,207.4,207.4,0,0,0,7.669-31.952c2.315-15.416,2.894-35.562-7.5-43.988a.544.544,0,0,1,.686-.845c8.665,7.026,11.318,22.169,7.886,45.009a208.614,208.614,0,0,1-7.714,32.129A.544.544,0,0,1,3957.9,4961.928Z" transform="translate(-3957.357 -4884.301)"/></g><g transform="translate(88.922 143.806)"><path class="e" d="M4079.492,5101.249a.544.544,0,0,1-.156-1.065c2.085-.626,51.241-15.228,65.42-7.046a.544.544,0,1,1-.543.942c-13.778-7.949-64.058,6.995-64.564,7.146A.529.529,0,0,1,4079.492,5101.249Z" transform="translate(-4078.948 -5090.655)"/></g></g></g></g></g><g transform="translate(24.717 29.312)"><g transform="translate(86.865 2.166)"><path class="g" d="M3936.2,4059.155l-.389,2.782a21.816,21.816,0,0,0-3.793.5l-1.051-2.6a1.379,1.379,0,0,0-1.81-.75l-4.459,1.837a1.406,1.406,0,0,0-.776,1.817l1.057,2.628a22.479,22.479,0,0,0-3.052,2.331l-2.243-1.738a1.4,1.4,0,0,0-1.96.259l-3,3.833a1.4,1.4,0,0,0,.227,1.965l2.249,1.748a22.4,22.4,0,0,0-1.508,3.552l-2.854-.374a1.434,1.434,0,0,0-1.594,1.214l-.717,4.835a1.383,1.383,0,0,0,1.183,1.586l2.862.375a22.239,22.239,0,0,0,.43,3.839l-2.686,1.12a1.451,1.451,0,0,0-.794,1.86l1.79,4.547a1.384,1.384,0,0,0,1.833.769l2.687-1.125a22.023,22.023,0,0,0,2.3,3.1l-1.79,2.325a1.44,1.44,0,0,0,.232,2.011l3.838,3.011a1.406,1.406,0,0,0,1.989-.271l1.77-2.31a21.646,21.646,0,0,0,3.573,1.5l-.4,2.883a1.415,1.415,0,0,0,1.2,1.613l4.846.636a1.439,1.439,0,0,0,1.6-1.246l.391-2.861a21.757,21.757,0,0,0,3.873-.51l1.063,2.643a1.4,1.4,0,0,0,1.844.774l4.52-1.916a1.452,1.452,0,0,0,.77-1.879l-1.063-2.624a22.493,22.493,0,0,0,3.106-2.415l2.209,1.718a1.4,1.4,0,0,0,1.977-.271l2.959-3.923a1.438,1.438,0,0,0-.261-2l-2.189-1.7a22.41,22.41,0,0,0,1.486-3.65l2.737.359a1.406,1.406,0,0,0,1.571-1.225l.621-4.848a1.41,1.41,0,0,0-1.208-1.583l-2.729-.358a22.17,22.17,0,0,0-.5-3.877l2.531-1.06a1.407,1.407,0,0,0,.752-1.836l-1.849-4.469a1.39,1.39,0,0,0-1.82-.755l-2.545,1.061a22.088,22.088,0,0,0-2.349-3.063l1.682-2.2a1.394,1.394,0,0,0-.255-1.953l-3.8-2.921a1.391,1.391,0,0,0-1.948.257l-1.693,2.2a21.634,21.634,0,0,0-3.544-1.451l.377-2.76a1.378,1.378,0,0,0-1.187-1.555l-4.75-.623A1.4,1.4,0,0,0,3936.2,4059.155Zm-16.747,22.532a17.589,17.589,0,0,1,19.591-15.01,17.3,17.3,0,0,1,14.819,19.524,17.583,17.583,0,0,1-19.618,15.2A17.292,17.292,0,0,1,3919.455,4081.687Z" transform="translate(-3910.516 -4057.949)"/></g><path class="g" d="M3595.809,4050.975l-.6,4.3a33.711,33.711,0,0,0-5.865.777l-1.625-4.012a2.132,2.132,0,0,0-2.8-1.161l-6.9,2.841a2.174,2.174,0,0,0-1.2,2.81l1.634,4.063a34.782,34.782,0,0,0-4.72,3.6l-3.467-2.687a2.168,2.168,0,0,0-3.031.4l-4.633,5.927a2.158,2.158,0,0,0,.351,3.038l3.477,2.7a34.627,34.627,0,0,0-2.332,5.491l-4.412-.579a2.217,2.217,0,0,0-2.465,1.878l-1.109,7.476a2.137,2.137,0,0,0,1.829,2.451l4.425.581a34.3,34.3,0,0,0,.666,5.936l-4.152,1.731a2.244,2.244,0,0,0-1.229,2.876l2.767,7.03a2.14,2.14,0,0,0,2.834,1.188l4.155-1.739a34.1,34.1,0,0,0,3.559,4.792l-2.768,3.594a2.228,2.228,0,0,0,.359,3.11l5.935,4.656a2.177,2.177,0,0,0,3.075-.419l2.735-3.571a33.437,33.437,0,0,0,5.524,2.323l-.623,4.457a2.189,2.189,0,0,0,1.861,2.495l7.493.982a2.224,2.224,0,0,0,2.472-1.926l.6-4.423a33.725,33.725,0,0,0,5.988-.79l1.644,4.086a2.159,2.159,0,0,0,2.852,1.2l6.988-2.961a2.245,2.245,0,0,0,1.19-2.906l-1.644-4.057a34.827,34.827,0,0,0,4.8-3.734l3.415,2.655a2.159,2.159,0,0,0,3.056-.416l4.577-6.066a2.225,2.225,0,0,0-.4-3.091l-3.385-2.623a34.619,34.619,0,0,0,2.3-5.644l4.232.555a2.174,2.174,0,0,0,2.43-1.893l.96-7.5a2.182,2.182,0,0,0-1.868-2.447l-4.219-.553a34.251,34.251,0,0,0-.778-5.994l3.914-1.639a2.175,2.175,0,0,0,1.163-2.839l-2.858-6.91a2.15,2.15,0,0,0-2.814-1.167l-3.936,1.641a34.123,34.123,0,0,0-3.632-4.737l2.6-3.395a2.156,2.156,0,0,0-.395-3.02l-5.879-4.517a2.15,2.15,0,0,0-3.012.4l-2.617,3.4a33.39,33.39,0,0,0-5.479-2.243l.583-4.268a2.131,2.131,0,0,0-1.835-2.405l-7.345-.963A2.167,2.167,0,0,0,3595.809,4050.975Zm-25.894,34.839a27.2,27.2,0,0,1,30.291-23.209,26.747,26.747,0,0,1,22.913,30.187,27.185,27.185,0,0,1-30.332,23.5A26.736,26.736,0,0,1,3569.915,4085.813Z" transform="translate(-3556.094 -4049.11)"/></g><g transform="translate(19.026 62.602)"><path class="h" d="M3590.345,4195.228l-32.125,267.014a7.035,7.035,0,0,0,6.143,7.976l133.8,14.69c8.2.51,12.685-3.679,13.191-7.936l33.727-283.88c.5-4.233-3.518-8.067-11.75-8.067l-135.02,2.844A8.512,8.512,0,0,0,3590.345,4195.228Z" transform="translate(-3551.967 -4185.003)"/><path class="i" d="M3565.23,4194.7l-32.3,268.349a7.069,7.069,0,0,0,6.164,8.018l138.716,13.811a8.11,8.11,0,0,0,8.843-6.993l33.917-285.346a6.73,6.73,0,0,0-7.085-7.6l-140.254,2.366A8.549,8.549,0,0,0,3565.23,4194.7Z" transform="translate(-3532.874 -4184.939)"/><path class="g" d="M3583.257,4259.683,3553.318,4508.5a6.591,6.591,0,0,0,5.772,7.476l130.458,12.682a7.563,7.563,0,0,0,8.221-6.527l31.344-263.594a6.306,6.306,0,0,0-6.578-7.125l-131.8,1.4A7.934,7.934,0,0,0,3583.257,4259.683Z" transform="translate(-3548.269 -4235.116)"/><path class="j" d="M3961.014,4215.943a2.22,2.22,0,0,0,2.292,2.554,3.059,3.059,0,0,0,2.917-2.624,2.22,2.22,0,0,0-2.3-2.554A3.06,3.06,0,0,0,3961.014,4215.943Z" transform="translate(-3856.068 -4206.363)"/><g class="k" transform="translate(35.847)"><path class="e" d="M3700.832,4376.524c26.708-49.379,66.6-64.159,78.617-115.05,6.493-27.508,2.069-53.837-5.382-75.694l49.832-.84a6.73,6.73,0,0,1,7.085,7.6l-33.917,285.346a8.108,8.108,0,0,1-8.843,6.992l-109.045-10.855C3678.372,4429.779,3688.927,4398.535,3700.832,4376.524Z" transform="translate(-3679.135 -4184.939)"/></g></g><g transform="translate(11.656 102.849)"><path class="l" d="M3666.326,4350.5l.652,3.519h0l-13.421.032-116.463.275a6.477,6.477,0,0,0-6.162,5.532l-27.8,185.808c-.414,3.074,4.374,7.77,7.352,8l51.668,3.971v-.062l77.287,5.93h0l.187.078a6.346,6.346,0,0,0,6.756-5.389.11.11,0,0,0,0,.013l26.036-198.382C3672.844,4356.609,3669.645,4350.5,3666.326,4350.5Z" transform="translate(-3503.031 -4350.173)"/><path class="m" d="M3643.521,4553.308a6.37,6.37,0,0,1-6.753,5.425l-129.279-9.927a5.144,5.144,0,0,1-4.635-5.982l25.273-187.783a6.476,6.476,0,0,1,6.159-5.532l130.008-.358a5.063,5.063,0,0,1,5.249,5.81Z" transform="translate(-3502.802 -4349.151)"/><path class="e" d="M3715.838,4688.879a3.268,3.268,0,0,1-3.357,2.749l-113.781-4.152a2.419,2.419,0,0,1-2.352-2.828l2.237-16.581a2.979,2.979,0,0,1,3.081-2.533l113.88,3.163a2.472,2.472,0,0,1,2.6,2.815Z" transform="translate(-3573.402 -4587.99)"/><path class="e" d="M3698.164,4819.837a3.382,3.382,0,0,1-3.358,2.907l-113.695-5.617a2.611,2.611,0,0,1-2.338-3.049l2.254-16.9a3.2,3.2,0,0,1,3.092-2.8l113.764,4.588a2.762,2.762,0,0,1,2.591,3.163Z" transform="translate(-3560.134 -4685.259)"/><path class="n" d="M3718.149,4671.446a3.143,3.143,0,0,0-.868-.144l-113.883-3.16a2.975,2.975,0,0,0-3.079,2.531l-2.24,16.581-.013.126a2.416,2.416,0,0,1-1.724-2.731l2.24-16.581a2.976,2.976,0,0,1,3.079-2.531l113.882,3.161A2.476,2.476,0,0,1,3718.149,4671.446Z" transform="translate(-3573.398 -4587.993)"/><path class="n" d="M3700.5,4801.754a2.69,2.69,0,0,0-.881-.186l-113.761-4.59a3.2,3.2,0,0,0-3.091,2.8l-2.258,16.9a2.631,2.631,0,0,0-.021.322,2.669,2.669,0,0,1-1.715-2.926l2.258-16.9a3.2,3.2,0,0,1,3.091-2.8l113.761,4.59A2.751,2.751,0,0,1,3700.5,4801.754Z" transform="translate(-3560.131 -4685.253)"/><path class="o" d="M3725.879,4983.727a4.385,4.385,0,0,0-4.018-5.033l-58.856-3.38a5.045,5.045,0,0,0-5.02,4.39l-2.429,18.307a4.338,4.338,0,0,0,3.8,5.02l58.825,4.025a5.219,5.219,0,0,0,5.244-4.529Z" transform="translate(-3618.087 -4821.843)"/><g transform="translate(68.151 16.452)"><path class="p" d="M3824.956,4438.371a25.476,25.476,0,0,1-25.039,21.638,19.232,19.232,0,0,1-14.956-7.148,19.617,19.617,0,0,1-3.9-14.963c1.6-11.97,12.6-21.646,24.665-21.618C3817.913,4416.309,3826.568,4426.2,3824.956,4438.371Z" transform="translate(-3780.87 -4416.279)"/><g transform="translate(4.091 5.905)"><path class="e" d="M3854.1,4449.909a11.054,11.054,0,0,1-10.79,9.382,8.2,8.2,0,0,1-8.2-9.539,11.06,11.06,0,0,1,10.719-9.377A8.2,8.2,0,0,1,3854.1,4449.909Z" transform="translate(-3825.839 -4440.375)"/><path class="e" d="M3829.5,4538.586a24.759,24.759,0,0,1-16.983,6.617,19.236,19.236,0,0,1-14.957-7.147,21.067,21.067,0,0,1,17.092-8.92A16.133,16.133,0,0,1,3829.5,4538.586Z" transform="translate(-3797.561 -4507.381)"/></g></g><path class="q" d="M3805.292,4354.962l-26.023,198.348a6.554,6.554,0,0,1-6.944,5.41l-77.646-5.962a41.359,41.359,0,0,1-8.894-13.747,42.386,42.386,0,0,1-2.362-8.57c-1.441-8.374-.883-17.895,1.219-27.24a89.953,89.953,0,0,1,7.4-20.7,67.991,67.991,0,0,1,9.055-13.744c2.454-2.833,5.108-5.587,7.907-8.286,3.375-3.258,6.963-6.439,10.664-9.59,8.624-7.347,17.858-14.531,26.407-22.117,19.727-17.5,35.731-37.054,31.88-64.954-.123-.879-1.326-7.609-2.861-14.584l24.76-.068A5.205,5.205,0,0,1,3805.292,4354.962Z" transform="translate(-3638.55 -4349.152)"/></g><g transform="translate(0)"><g transform="translate(0 2.092)"><path class="r" d="M3455.245,3985.549c0-26.238,22.888-47.5,50.354-47.5,26.654,0,47.69,20.15,47.69,45s-21.036,46.07-47.69,47.433C3478.132,4031.887,3455.245,4011.787,3455.245,3985.549Z" transform="translate(-3455.245 -3938.048)"/></g><g transform="translate(2.961)"><path class="s" d="M3467.325,3977.012c0-26.237,22.226-47.5,48.9-47.5,25.883,0,46.31,20.15,46.31,45s-20.427,46.07-46.31,47.434C3489.551,4023.349,3467.325,4003.25,3467.325,3977.012Z" transform="translate(-3467.325 -3929.511)"/></g><g transform="translate(10.57 7.393)"><path class="t" d="M3498.372,3999.584c0-22.043,18.673-39.911,41.081-39.908,21.746,0,38.908,16.93,38.908,37.807s-17.162,38.707-38.908,39.852C3517.045,4038.515,3498.372,4021.628,3498.372,3999.584Z" transform="translate(-3498.372 -3959.676)"/></g><path class="u" d="M3546.417,3963.063c21.746,0,38.908,16.929,38.908,37.807a38.178,38.178,0,0,1-2.752,14.188,38.388,38.388,0,0,0,4.295-17.576c0-20.877-17.162-37.8-38.908-37.807a41.3,41.3,0,0,0-38.319,25.606A41.423,41.423,0,0,1,3546.417,3963.063Z" transform="translate(-3496.309 -3952.282)"/><g transform="translate(33.053 21.056)"><g transform="translate(0 12.327)"><path class="e" d="M3614.068,4088.28a7.776,7.776,0,0,1-1.874,4.473,5.118,5.118,0,0,1-4,1.5,6.925,6.925,0,0,1-3.376-.744,6.272,6.272,0,0,1-2.215-2.009,9.387,9.387,0,0,1-1.32-3.024,15.351,15.351,0,0,1-.44-3.652,16.687,16.687,0,0,1,.44-3.809,9.389,9.389,0,0,1,1.32-3.024,6.272,6.272,0,0,1,2.215-2.009,6.93,6.93,0,0,1,3.376-.744,5.118,5.118,0,0,1,4,1.5,7.776,7.776,0,0,1,1.874,4.473l.187,1.494h10.465l-.167-1.857a18.723,18.723,0,0,0-1.6-6.213,15.292,15.292,0,0,0-3.469-4.83,14.853,14.853,0,0,0-5.058-3.06,18.2,18.2,0,0,0-6.231-1.036,18.86,18.86,0,0,0-7.566,1.472,16.5,16.5,0,0,0-5.745,4.087,17.977,17.977,0,0,0-3.56,6.055,21.918,21.918,0,0,0-1.219,7.364c0,.019,0,.036,0,.054s0,.036,0,.054a21.918,21.918,0,0,0,1.219,7.364,17.977,17.977,0,0,0,3.56,6.055,16.5,16.5,0,0,0,5.745,4.087,18.86,18.86,0,0,0,7.566,1.472,18.2,18.2,0,0,0,6.231-1.036,14.861,14.861,0,0,0,5.058-3.06,15.292,15.292,0,0,0,3.469-4.83,18.72,18.72,0,0,0,1.6-6.212l.167-1.857h-10.465Z" transform="translate(-3590.106 -4065.717)"/></g><g transform="translate(4.109)"><path class="e" d="M3606.871,4015.423v8.218h26.4v-8.218Z" transform="translate(-3606.871 -4015.423)"/></g></g></g></g><g transform="translate(0 11.388)"><path class="v" d="M3543.275,4418.981c1.721-1.215,5.624-3.889,5.827-3.293a2.621,2.621,0,0,1-.53,1.914c2.361-.881,4.758-1.46,10.426-.371a4.246,4.246,0,0,1,2.789,1.835,1.874,1.874,0,0,1-.652,2.925c-2.893,1.8-2.054.721-6.074,3.34s-8.942,3.288-11.883,1.45l-3.946-.658-.489-6.491S3540.99,4419.363,3543.275,4418.981Z" transform="translate(-3369.758 -4307.855)"/><path class="v" d="M3135.291,4143.264s9.3,11.038,21.152,6.42c0,0,2.55-6.164,2.585-10.708,0-.56.011-1.1.02-1.617.063-5.118.235-7.989.235-7.989l-.012,0c-.539-.225-18.112-7.44-18.1-6.841C3141.475,4136.368,3135.291,4143.264,3135.291,4143.264Z" transform="translate(-3065.188 -4086.583)"/><path class="w" d="M3166.458,4135.7c1.695,3.141,7.509,9.286,16.109,11.532.063-5.118.236-7.989.236-7.989l-.012,0C3182.305,4139.112,3165.954,4134.777,3166.458,4135.7Z" transform="translate(-3088.709 -4096.458)"/><path class="v" d="M3169.772,4048.062s-19.762,4.646-22.466-7.706-7.075-20.07,5.428-23.559,15.995.686,17.9,4.589S3174.844,4046.535,3169.772,4048.062Z" transform="translate(-3071.998 -4005.806)"/><path class="x" d="M3116.959,4013.892c-.27.173-4.522,1.479-12.575-14.563a13.972,13.972,0,0,1,.822-12.78c2.947-4.813,13.4-8.6,22.077-10.245s10.766,3.238,12.809,8.147c2.146,5.154,8.344,9.4,8.344,9.4-7.486,4.182-16.5-1.8-19.626-.816s-4.227,5.907-4.461,7.484-.595,2.89-4.523,1.48-1.776,5.567-1.147,6.9C3118.678,4008.9,3119.212,4012.449,3116.959,4013.892Z" transform="translate(-3040.974 -3975.977)"/><g transform="translate(0 151.726)"><path class="y" d="M2874.338,5296.42h-11.967c-2.508,0-5.3-2.512-5.994-7.11s-5.854-7.11-6.97-10.875,4.6-9.064,4.6-9.064l.956-1.228.994-1.28,9.479,2.229s.234,2.258.38,5.132a65.525,65.525,0,0,1,.038,6.58c-.279,5.021,1.406,10.425,5.865,11.4S2874.338,5296.42,2874.338,5296.42Z" transform="translate(-2849.263 -5102.208)"/><path class="y" d="M3187.071,5334.267h-31.72a2.823,2.823,0,0,1-.674-.2c-2.118-1.061-1.454-9.169-1.2-11.673.048-.464.084-.737.084-.737s11.154-8.92,12.689-2.089c.049.212.1.422.164.628v0c1.937,6.392,10.592,9.295,15.592,10.1C3185.826,5330.928,3186.816,5333.154,3187.071,5334.267Z" transform="translate(-3078.69 -5140.055)"/><path class="z" d="M3119.6,4632.1s-1.694,21.134-3.685,46.539c-2.706,34.51-5.96,76.9-6.282,84.932-.557,13.944-2.79,36.25-2.79,36.25s-5.3,5.3-15.894,3.066c0,0-9.444-31.842-12.142-65.533-.042-.552-.084-1.108-.125-1.665-2.51-34.3-6.412-106.518-6.412-106.518Z" transform="translate(-3017.616 -4620.809)"/><path class="aa" d="M3119.6,4632.1s-1.694,21.134-3.685,46.539l-37.108,58.715c-.042-.552-.084-1.108-.125-1.665-2.51-34.3-6.412-106.518-6.412-106.518Z" transform="translate(-3017.616 -4620.809)"/><path class="z" d="M2958.13,4608.847s-30.533,76.541-50.61,112.511-26.35,46.009-26.35,46.009-11.5-4.6-12.548-7.737c0,0,7.677-69.442,21.122-86.371,7.6-9.565,16.521-38.271,16.939-48.309s2.719-29.905,2.719-29.905Z" transform="translate(-2863.878 -4595.044)"/></g><g transform="translate(14.365 57.904)"><path class="v" d="M2918.129,4589.071l-.323,4.923a10.607,10.607,0,0,1-5.85,13.231s-3.894,1.571-4.051-1.46.34-1.891.023-6.16,1.362-8.3,4.186-9.662l2.317-2.673Z" transform="translate(-2907.873 -4495.353)"/><path class="ab" d="M2922.275,4309.535c3.379,1.085,3.92.84,3.92.84s16.45-29.947,18.115-32.689,34.925-33.581,34.925-33.581l-8.547-31.872s-37.827,48.984-41.912,56.013c-6.75,11.615-10.705,38.591-10.705,38.591A9.893,9.893,0,0,0,2922.275,4309.535Z" transform="translate(-2915.572 -4212.232)"/></g><path class="ac" d="M3090.334,4234.666c-.118,6.545-.5,13.9-1.011,21.376q-.048.665-.094,1.329c-.328,4.63-.684,9.271-1.092,13.795q-.246,2.722-.52,5.369l-.028.237c-.014.659-.094,1.375-.167,2.026-1.667,16.949-3.416,30.34-3.74,30.545a1.9,1.9,0,0,1-1.3.332c-4.445-.559-17.705.449-28.563-1.912-9.162-1.933-17.05-5.6-25.409-10.536-1.109-.656-3.639-2.394-3.433-3.691.2-1.427.576-3.489,1.05-6.081a328.982,328.982,0,0,0,5.459-42.672q.283-5.07.82-10a151.831,151.831,0,0,1,4.427-23.888c3.723-13.4,9.193-23.668,16.055-27.684.9-.5,5.721,2.567,10.152,5.411a19.569,19.569,0,0,0,12.591,2.983l3.688,4.078c4.466,5.191,9.221,12.1,10.519,21.927.1.726.181,1.5.251,2.316A144.073,144.073,0,0,1,3090.334,4234.666Z" transform="translate(-2981.901 -4132.379)"/><path class="ab" d="M3198.036,4324.746c-.118,6.545-.5,13.9-1.011,21.376-.031.443-.063.887-.094,1.329-25.388-15.892-29.3-44.971-29.3-44.971,12.49.547,22.413,3.419,30.059,7.525A144,144,0,0,1,3198.036,4324.746Z" transform="translate(-3089.602 -4222.458)"/><path class="ac" d="M3228.4,4284c.261-3.766-1.688-4.392-1.688-4.392s-38.279-6.937-41.533-7.961-31.079-29.969-31.079-29.969-10.666-12.028-19.4-9.372c-7.589,2.308-10.555,8.228-11.565,13.867a16.61,16.61,0,0,0,7.713,17.051c13.063,8.012,39.216,23.8,45.374,25.6,13.709,4.019,50.54.322,50.54.322A11.883,11.883,0,0,0,3228.4,4284Z" transform="translate(-3055.818 -4169.191)"/></g></svg>